<svg width="124" height="40" viewBox="0 0 124 40" fill="none" xmlns="http://www.w3.org/2000/svg">
<path d="M58.4351 0H69.4996C75.8663 0 79.8266 3.4941 79.8266 9.23915C79.8266 14.9842 75.8669 18.5176 69.4996 18.5176H63.9093V28.5724H58.4357V0H58.4351ZM69.9652 13.7037C72.6436 13.7037 74.2743 11.8789 74.2743 9.23915C74.2743 6.59939 72.6436 4.81333 69.9652 4.81333H63.9087V13.7037H69.9652ZM80.4926 22.6475C80.4926 18.8761 83.28 16.375 89.2243 16.375H95.4143V15.7599C95.4143 12.7262 93.8977 11.5784 90.864 11.5784C88.1991 11.5784 86.6413 12.6443 86.2319 14.4484H80.9846C81.5997 9.89812 85.2479 6.98756 91.1103 6.98756C97.3003 6.98756 100.703 9.77497 100.703 15.8011V28.5918H95.825L95.5381 23.8365C94.2266 26.4189 92.0124 28.9606 87.8722 28.9606C83.732 28.9606 80.4933 26.7058 80.4933 22.6475H80.4926ZM89.1837 24.4103C92.5862 24.4103 95.3737 23.7546 95.4149 20.147H88.8968C86.7651 20.147 85.8224 20.9259 85.8224 22.2787C85.8224 23.4264 86.847 24.4103 89.1837 24.4103ZM105.669 32.3567H112.795C117.832 32.3567 118.528 30.5139 118.528 27.0327V23.3477C117.34 26.9927 114.965 28.958 111.525 28.958C107.143 28.958 103.99 26.1732 103.99 19.9897V7.37636H109.232V18.8439C109.232 22.6527 111.321 24.086 113.86 24.086C116.685 24.086 118.528 22.407 118.528 18.8852V7.37636H123.77V26.6239C123.77 33.5038 121.108 37.2306 112.508 37.2306H105.669V32.3573V32.3567ZM13.6276 24.215C11.9859 23.478 10.8427 21.8286 10.8427 19.913V13.202C10.8427 11.8995 11.8983 10.8447 13.2001 10.8447H30.9549C32.2561 10.8447 33.3116 11.9092 33.3116 13.202V22.7887C33.3116 24.0834 34.2595 24.7302 34.6683 24.9152L42.496 28.4641C42.6423 28.5292 42.8048 28.566 42.9757 28.566C43.6269 28.566 44.1537 28.0386 44.1537 27.3873V4.71662C44.1544 2.11361 42.0446 0.00257915 39.4403 0.00257915H4.71468C2.11103 0.00257915 0 2.11361 0 4.71662V25.4781C0 27.6646 1.48946 29.5029 3.50829 30.0355C3.51538 30.0374 42.6649 39.9568 42.6649 39.9568C42.7642 39.9845 42.8687 40 42.9763 40C43.6276 40 44.1544 39.4726 44.1544 38.822C44.1544 38.3435 43.8694 37.9328 43.4599 37.7478L13.6276 24.2156V24.215Z" fill="#1061FF"/>
</svg>
